<svg version="1.2" xmlns="http://www.w3.org/2000/svg" viewBox="0 0 456 456" width="456" height="456">
	<title>splash</title>
	<style>
		.s0 { fill: #ffffff } 
	</style>
	<g id="Layer 1">
		<path id="Delta 	  Share" class="s0" aria-label="Delta
	  Share"  d="m85.4 214.4v-33.3c0-9.9-5.8-13.4-15.7-13.4h-15.8v60.3h16.8c10.4 0 14.7-3.7 14.7-13.6zm-7.5 0.9c0 4.3-2 6.2-6.4 6.2h-10.1v-47.3h10.2c3.7 0 6.3 2.4 6.3 6.2zm45.7 12.7v-6.5h-11.9c-4.3 0-6.5-2.1-6.5-5.6v-6.4h21.2v-11.2c0-8.6-4.1-13.4-12.4-13.4h-2.3c-9.9 0-13.8 4-13.8 13.8v15.5c0 9.9 4.7 13.8 14.6 13.8zm-18.4-31c0-3.4 1.3-5.6 5.6-5.6h3.3c3 0 5.1 2.2 5.1 5.2v6.4h-14zm45.3 31v-6.4h-1.7c-2.3 0-3-0.8-3-2.6v-51.3h-7.4v51.7c0 6.6 4 8.6 7.4 8.6zm27.6 0v-6.4h-6.1c-2.6 0-3.9-0.9-3.9-3.5v-26.7h10v-6.4h-10v-10.4h-7.3v10.4h-5.6v6.4h5.6v26.3c0 6 3 10.3 9.1 10.3zm39.2 0v-6c-3.2 0-4.4-0.9-4.4-2.6v-20.7c0-9.8-4.7-13.7-14.6-13.7h-10.8v6.4h11.7c4.3 0 6.4 2.2 6.4 5.6v4.3h-8.9c-8.7 0-12.6 4.8-12.6 13.4v1.7c0 8.6 3.9 11.6 12.5 11.6h5.9c2.3 0 4.1-1 5.3-2.5 1.3 1.5 3.2 2.5 4.7 2.5zm-15.6-6.4h-5.9c-3 0-4.3-1.3-4.3-4.3v-4.3c0-3.1 2.1-5.2 5.1-5.2h9.1v9.5c0 1.7 0 4.3-4 4.3zm51.9 95.8v-5.7c0-9.8-5-14.2-12.9-14.2h-1.8c-3.8 0-6.2-2.8-6.2-6.2v-6.6c0-3.4 2.9-6.4 7.2-6.4h12.3v-6.6h-11.5c-9.9 0-15.5 4.9-15.5 14.7v3.3c0 9.8 5.6 14.6 13.8 14.6h1.7c3.8 0 5.4 2.5 5.4 5.8v8.9c0 3.5-2.9 6.5-7.2 6.5h-12.2v6.5h11.4c9.9 0 15.5-4.8 15.5-14.6zm18.9 14.6v-32.1c0-1.7 1.5-4.5 5.6-4.5h4c3.4 0 5.6 2.2 5.6 5.6v31h7.3v-29.3c0-9.9-4.7-13.7-13.8-13.7h-2.2c-2.4 0-4.7 0.5-6.5 1.7v-19h-7.3v60.3zm66 0v-6c-3.2 0-4.3-0.9-4.3-2.6v-20.7c0-9.8-4.7-13.7-14.7-13.7h-10.7v6.4h11.6c4.3 0 6.5 2.2 6.5 5.6v4.3h-9c-8.6 0-12.6 4.8-12.6 13.4v1.7c0 8.6 3.9 11.6 12.5 11.6h6c2.2 0 4-1 5.2-2.5 1.3 1.5 3.2 2.5 4.8 2.5zm-15.6-6.4h-6c-3 0-4.3-1.3-4.3-4.3v-4.3c0-3.1 2.2-5.2 5.2-5.2h9v9.5c0 1.7 0 4.3-3.9 4.3zm33.2 6.4v-30.5c0-1.8 1.3-5.6 5.6-5.6h7.2v-6.9h-6.3c-2.8 0-5 0.7-6.9 2.3v-2.3h-6.9v43zm45 0v-6.4h-12c-4.3 0-6.5-2.2-6.5-5.6v-6.5h21.2v-11.2c0-8.6-4.1-13.3-12.4-13.3h-2.3c-9.9 0-13.8 3.9-13.8 13.7v15.6c0 9.9 4.8 13.7 14.7 13.7zm-18.5-31c0-3.4 1.3-5.6 5.6-5.6h3.3c3 0 5.2 2.2 5.2 5.2v6.5h-14.1z"/>
	</g>
</svg>